<?xml version="1.0" encoding="UTF-8" standalone="no"?>
<!-- Created with Inkscape (http://www.inkscape.org/) -->

<svg
   xmlns:dc="http://purl.org/dc/elements/1.1/"
   xmlns:cc="http://creativecommons.org/ns#"
   xmlns:rdf="http://www.w3.org/1999/02/22-rdf-syntax-ns#"
   xmlns:svg="http://www.w3.org/2000/svg"
   xmlns="http://www.w3.org/2000/svg"
   xmlns:sodipodi="http://sodipodi.sourceforge.net/DTD/sodipodi-0.dtd"
   xmlns:inkscape="http://www.inkscape.org/namespaces/inkscape"
   width="1280"
   height="720"
   viewBox="0 0 1280 720"
   id="svg3363"
   version="1.1"
   inkscape:version="0.91 r13725"
   sodipodi:docname="logo.svg"
   inkscape:export-filename="/home/baldo/projects/ffhh/ffnord-info-beamer/ffnord-con-2015-2/logo/logo.png"
   inkscape:export-xdpi="90"
   inkscape:export-ydpi="90">
  <defs
     id="defs3365" />
  <sodipodi:namedview
     id="base"
     pagecolor="#ffffff"
     bordercolor="#666666"
     borderopacity="1.0"
     inkscape:pageopacity="0.0"
     inkscape:pageshadow="2"
     inkscape:zoom="1.4"
     inkscape:cx="606.70395"
     inkscape:cy="189.53381"
     inkscape:document-units="px"
     inkscape:current-layer="g3425"
     showgrid="false"
     units="px"
     inkscape:window-width="1278"
     inkscape:window-height="1415"
     inkscape:window-x="0"
     inkscape:window-y="23"
     inkscape:window-maximized="0" />
  <metadata
     id="metadata3368">
    <rdf:RDF>
      <cc:Work
         rdf:about="">
        <dc:format>image/svg+xml</dc:format>
        <dc:type
           rdf:resource="http://purl.org/dc/dcmitype/StillImage" />
        <dc:title />
      </cc:Work>
    </rdf:RDF>
  </metadata>
  <g
     inkscape:label="Layer 1"
     inkscape:groupmode="layer"
     id="layer1"
     transform="translate(0,-332.36224)">
    <g
       id="g3413"
       transform="matrix(0.95474973,0,0,0.95474973,31.067475,31.857036)">
      <path
         inkscape:connector-curvature="0"
         style="color:#000000;clip-rule:nonzero;display:inline;overflow:visible;visibility:visible;opacity:1;isolation:auto;mix-blend-mode:normal;color-interpolation:sRGB;color-interpolation-filters:linearRGB;solid-color:#000000;solid-opacity:1;fill:#e44081;fill-opacity:1;fill-rule:nonzero;stroke:#dc0067;stroke-width:1;stroke-linecap:round;stroke-linejoin:round;stroke-miterlimit:4;stroke-dasharray:none;stroke-dashoffset:0;stroke-opacity:1;color-rendering:auto;image-rendering:auto;shape-rendering:auto;text-rendering:auto;enable-background:accumulate"
         d="M 728.68638,350.92954 A 220.49287,220.49287 0 0 0 520.99106,498.10728 150.31792,150.31792 0 0 0 476.72349,491.27916 150.31792,150.31792 0 0 0 326.40513,641.59752 150.31792,150.31792 0 0 0 476.72349,791.91587 150.31792,150.31792 0 0 0 588.71763,741.58384 220.49287,220.49287 0 0 0 728.68638,791.91587 220.49287,220.49287 0 0 0 949.18052,571.42369 220.49287,220.49287 0 0 0 728.68638,350.92954 Z m 0,30.35352 A 190.13927,190.13927 0 0 1 918.827,571.42369 190.13927,190.13927 0 0 1 728.68638,761.56236 190.13927,190.13927 0 0 1 606.50083,717.07994 150.31792,150.31792 0 0 0 616.68442,695.5565 167.38731,167.38731 0 0 0 728.68638,738.81041 167.38731,167.38731 0 0 0 896.07505,571.42369 167.38731,167.38731 0 0 0 728.68638,404.03502 167.38731,167.38731 0 0 0 568.63364,522.92955 150.31792,150.31792 0 0 0 548.96567,509.9608 190.13927,190.13927 0 0 1 728.68638,381.28306 Z m 0,28.45703 a 161.68246,161.68246 0 0 1 161.68359,161.6836 161.68246,161.68246 0 0 1 -161.68359,161.68164 161.68246,161.68246 0 0 1 -109.74219,-43.22266 150.31792,150.31792 0 0 0 8.0957,-48.28515 150.31792,150.31792 0 0 0 -53.64062,-114.7168 161.68246,161.68246 0 0 1 155.28711,-117.14063 z m -251.96289,86.27735 a 145.57964,145.57964 0 0 1 42.82031,6.45117 220.49287,220.49287 0 0 0 -11.34961,68.95508 220.49287,220.49287 0 0 0 76.98828,167.05468 A 145.57964,145.57964 0 0 1 476.72349,787.17759 145.57964,145.57964 0 0 1 331.14341,641.59752 145.57964,145.57964 0 0 1 476.72349,496.01744 Z m 70.63671,18.33789 a 145.57964,145.57964 0 0 1 19.78711,13.41406 167.38731,167.38731 0 0 0 -5.84765,43.6543 167.38731,167.38731 0 0 0 51.62695,120.83203 145.57964,145.57964 0 0 1 -9.95117,21.59375 190.13927,190.13927 0 0 1 -64.42774,-142.42578 190.13927,190.13927 0 0 1 8.8125,-57.06836 z m 24.78711,17.42578 a 145.57964,145.57964 0 0 1 50.1543,109.81641 145.57964,145.57964 0 0 1 -7.19336,44.71093 161.68246,161.68246 0 0 1 -48.10351,-114.88476 161.68246,161.68246 0 0 1 5.14257,-39.64258 z"
         id="circle5678" />
      <polygon
         style="fill:#ffc640;fill-opacity:1;stroke:#ffb400;stroke-width:0.1418799;stroke-linecap:round;stroke-linejoin:round;stroke-miterlimit:4;stroke-dasharray:none"
         points="31,56 37,50 31,44 26,44 30,48 22,48 22,52 30,52 26,56 "
         transform="matrix(7.3084349,-6.920364e-8,-2.0120062e-8,6.9273802,224.1884,303.86994)"
         id="polygon5543-0" />
      <polygon
         id="polygon5747"
         transform="matrix(-13.127626,-1.2430561e-7,3.6140246e-8,12.443163,1116.7329,-46.888118)"
         points="31,56 37,50 31,44 26,44 30,48 22,48 22,52 30,52 26,56 "
         style="fill:#ffc640;fill-opacity:1;stroke:#ffb400;stroke-width:0.07898763;stroke-linecap:round;stroke-linejoin:round;stroke-miterlimit:4;stroke-dasharray:none" />
    </g>
    <g
       id="g3425"
       transform="matrix(0.93158948,0,0,0.93158948,45.877567,41.852256)">
      <text
         sodipodi:linespacing="125%"
         id="text4174"
         y="954.60046"
         x="394.6301"
         style="font-style:normal;font-weight:normal;font-size:147.46354675px;line-height:125%;font-family:Sans;letter-spacing:0px;word-spacing:0px;fill:#40b6e7;fill-opacity:1;stroke:#009ee0;stroke-width:1;stroke-linecap:round;stroke-linejoin:round;stroke-miterlimit:4;stroke-dasharray:none;stroke-opacity:1;"
         xml:space="preserve"><tspan
           style="font-style:normal;font-variant:normal;font-weight:800;font-stretch:normal;font-family:Oswald;-inkscape-font-specification:'Oswald Ultra-Bold';fill:#40b6e7;fill-opacity:1;stroke:#009ee0;stroke-width:1;stroke-linecap:round;stroke-linejoin:round;stroke-miterlimit:4;stroke-dasharray:none;"
           y="954.60046"
           x="394.6301"
           id="tspan4176"
           sodipodi:role="line">FFNORD</tspan></text>
      <g
         id="g3418">
        <text
           sodipodi:linespacing="125%"
           id="text4212"
           y="1032.0195"
           x="478.35355"
           style="font-style:normal;font-weight:normal;font-size:82.68903351px;line-height:125%;font-family:Sans;letter-spacing:0px;word-spacing:0px;fill:#ffc640;fill-opacity:1;stroke:#ffb400;stroke-width:1;stroke-linecap:round;stroke-linejoin:round;stroke-miterlimit:4;stroke-dasharray:none;stroke-opacity:1;"
           xml:space="preserve"><tspan
             dx="0 0 0"
             style="font-style:normal;font-variant:normal;font-weight:800;font-stretch:normal;font-family:Oswald;-inkscape-font-specification:'Oswald Ultra-Bold';fill:#ffc640;fill-opacity:1;stroke:#ffb400;stroke-width:1;stroke-linecap:round;stroke-linejoin:round;stroke-miterlimit:4;stroke-dasharray:none;"
             y="1032.0195"
             x="478.35355"
             id="tspan4214"
             sodipodi:role="line">CON</tspan></text>
        <text
           xml:space="preserve"
           style="font-style:normal;font-weight:normal;font-size:82.68903351px;line-height:125%;font-family:Sans;letter-spacing:0px;word-spacing:0px;fill:#e44081;fill-opacity:1;stroke:#dc0067;stroke-width:1;stroke-linecap:round;stroke-linejoin:round;stroke-miterlimit:4;stroke-dasharray:none;stroke-opacity:1;"
           x="620.80359"
           y="1032.0195"
           id="text4274"
           sodipodi:linespacing="125%"><tspan
             sodipodi:role="line"
             id="tspan4276"
             x="620.80359"
             y="1032.0195"
             style="font-style:normal;font-variant:normal;font-weight:800;font-stretch:normal;font-family:Oswald;-inkscape-font-specification:'Oswald Ultra-Bold';fill:#e44081;fill-opacity:1;stroke:#dc0067;stroke-width:1;stroke-linecap:round;stroke-linejoin:round;stroke-miterlimit:4;stroke-dasharray:none;"
             dx="5.5911546">2015.2</tspan></text>
        <polygon
           style="fill:#ffc640;fill-opacity:1;stroke:#ffb400;stroke-width:0.18134066;stroke-linecap:round;stroke-linejoin:round;stroke-miterlimit:4;stroke-dasharray:none"
           points="30,48 22,48 22,52 30,52 26,56 31,56 37,50 31,44 26,44 "
           transform="matrix(4.0051378,-4.0051379,3.796314,3.7963139,132.57633,923.99276)"
           id="polygon5543" />
      </g>
    </g>
  </g>
</svg>
